<?xml version="1.0" encoding="UTF-8"?>
<!DOCTYPE svg PUBLIC "-//W3C//DTD SVG 1.1//EN" "http://www.w3.org/Graphics/SVG/1.1/DTD/svg11.dtd">
<svg xmlns="http://www.w3.org/2000/svg" version="1.1" width="591px" height="591px" style="shape-rendering:geometricPrecision; text-rendering:geometricPrecision; image-rendering:optimizeQuality; fill-rule:evenodd; clip-rule:evenodd" xmlns:xlink="http://www.w3.org/1999/xlink">
<g><path style="opacity:0.985" fill="#fefdfd" d="M 279.5,4.5 C 382.089,2.65649 465.089,41.6565 528.5,121.5C 574.48,185.414 592.647,256.747 583,335.5C 566.165,433.37 514.331,506.204 427.5,554C 331.692,598.902 237.692,595.569 145.5,544C 77.9411,501.531 33.7744,441.365 13,363.5C -4.62922,282.872 8.03744,207.539 51,137.5C 105.81,57.3177 181.977,12.9844 279.5,4.5 Z"/></g>
<g><path style="opacity:1" fill="#fdbc3e" d="M 237.5,74.5 C 238.833,75.1667 239.833,76.1667 240.5,77.5C 240.5,79.5 240.5,81.5 240.5,83.5C 242.833,83.5 245.167,83.5 247.5,83.5C 251.332,85.2342 252.498,88.2342 251,92.5C 249.185,94.4049 247.185,96.0716 245,97.5C 245.987,99.3932 246.821,101.56 247.5,104C 246.857,111.396 243.19,113.396 236.5,110C 235.228,108.693 234.228,107.193 233.5,105.5C 230.112,110.329 225.612,111.662 220,109.5C 217.974,104.398 219.141,100.065 223.5,96.5C 218.124,95.7913 215.124,92.7913 214.5,87.5C 214.686,85.4205 215.686,83.9205 217.5,83C 220.592,82.2642 223.592,82.4309 226.5,83.5C 227.077,84.7733 227.743,84.7733 228.5,83.5C 228.57,77.43 231.57,74.43 237.5,74.5 Z"/></g>
<g><path style="opacity:1" fill="#fdbc3e" d="M 369.5,77.5 C 369.5,79.8333 369.5,82.1667 369.5,84.5C 373.487,84.0097 377.154,84.6764 380.5,86.5C 381.613,87.9464 381.78,89.6131 381,91.5C 379.145,94.0219 376.978,96.1886 374.5,98C 377.606,101.52 378.106,105.354 376,109.5C 370.567,112.733 366.067,111.733 362.5,106.5C 361.081,107.005 360.415,108.005 360.5,109.5C 357.236,110.324 353.902,110.658 350.5,110.5C 349.833,110.5 349.5,110.167 349.5,109.5C 349.5,106.5 349.5,103.5 349.5,100.5C 350.695,100.134 351.361,99.301 351.5,98C 345.719,95.2712 343.553,90.7712 345,84.5C 349.189,81.8822 353.355,81.8822 357.5,84.5C 356.749,76.5806 360.082,73.2473 367.5,74.5C 368.193,75.5178 368.859,76.5178 369.5,77.5 Z"/></g>
<g><path style="opacity:1" fill="#fad892" d="M 302.5,81.5 C 299.763,81.4013 297.096,81.7347 294.5,82.5C 295.492,80.9735 296.992,80.3068 299,80.5C 300.385,80.5143 301.551,80.8476 302.5,81.5 Z"/></g>
<g><path style="opacity:1" fill="#fbcb6d" d="M 237.5,74.5 C 231.57,74.43 228.57,77.43 228.5,83.5C 227.743,84.7733 227.077,84.7733 226.5,83.5C 226.932,79.8068 228.599,76.6401 231.5,74C 233.712,73.2109 235.712,73.3775 237.5,74.5 Z"/></g>
<g><path style="opacity:1" fill="#fce2ab" d="M 240.5,77.5 C 241.451,78.9187 241.784,80.5853 241.5,82.5C 243.735,82.2053 245.735,82.5386 247.5,83.5C 245.167,83.5 242.833,83.5 240.5,83.5C 240.5,81.5 240.5,79.5 240.5,77.5 Z"/></g>
<g><path style="opacity:1" fill="#febc3c" d="M 302.5,81.5 C 305.243,83.2393 307.243,85.5726 308.5,88.5C 308.5,91.5 308.5,94.5 308.5,97.5C 309.791,97.7373 310.791,97.404 311.5,96.5C 314.881,96.4595 318.214,96.7929 321.5,97.5C 322.167,98.8333 323.167,99.8333 324.5,100.5C 325.219,102.764 325.552,105.097 325.5,107.5C 322.8,112.531 318.8,116.197 313.5,118.5C 321.803,126.197 321.47,133.364 312.5,140C 310.167,140.667 307.833,140.667 305.5,140C 302.354,137.897 299.52,135.397 297,132.5C 294.268,134.452 291.435,136.285 288.5,138C 277.372,141.21 272.872,137.043 275,125.5C 275.278,124.584 275.778,123.918 276.5,123.5C 280.227,121.499 282.56,118.499 283.5,114.5C 280.14,114.384 276.807,114.051 273.5,113.5C 271.5,111.329 269.666,108.996 268,106.5C 266.895,98.9304 270.228,94.9304 278,94.5C 281.759,94.8079 285.259,95.8079 288.5,97.5C 287.642,91.1906 289.642,86.1906 294.5,82.5C 297.096,81.7347 299.763,81.4013 302.5,81.5 Z"/></g>
<g><path style="opacity:1" fill="#fbd27e" d="M 369.5,77.5 C 370.461,79.2646 370.795,81.2646 370.5,83.5C 373.518,83.3354 376.518,83.502 379.5,84C 380.252,84.6708 380.586,85.5041 380.5,86.5C 377.154,84.6764 373.487,84.0097 369.5,84.5C 369.5,82.1667 369.5,79.8333 369.5,77.5 Z"/></g>
<g><path style="opacity:1" fill="#fef6e8" d="M 229.5,87.5 C 238.53,86.66 240.53,89.8266 235.5,97C 232.975,97.8959 230.808,97.3959 229,95.5C 228.278,92.7395 228.445,90.0728 229.5,87.5 Z"/></g>
<g><path style="opacity:1" fill="#fef8ed" d="M 364.5,87.5 C 368.146,88.4615 369.313,90.7949 368,94.5C 364.658,98.4889 361.491,98.4889 358.5,94.5C 358.362,90.3065 360.362,87.9732 364.5,87.5 Z"/></g>
<g><path style="opacity:1" fill="#fcdc99" d="M 364.5,87.5 C 360.362,87.9732 358.362,90.3065 358.5,94.5C 356.926,91.5696 357.592,89.0696 360.5,87C 362.066,86.235 363.399,86.4017 364.5,87.5 Z"/></g>
<g><path style="opacity:1" fill="#fbdc99" d="M 308.5,88.5 C 308.902,91.4766 309.902,94.1433 311.5,96.5C 310.791,97.404 309.791,97.7373 308.5,97.5C 308.5,94.5 308.5,91.5 308.5,88.5 Z"/></g>
<g><path style="opacity:1" fill="#fbdc9b" d="M 311.5,96.5 C 312.622,95.8442 313.955,95.5108 315.5,95.5C 317.883,95.361 319.883,96.0277 321.5,97.5C 318.214,96.7929 314.881,96.4595 311.5,96.5 Z"/></g>
<g><path style="opacity:1" fill="#fefaf1" d="M 293.5,102.5 C 305.133,102.267 308.133,107.1 302.5,117C 293.42,120.215 289.253,117.048 290,107.5C 290.997,105.677 292.164,104.01 293.5,102.5 Z"/></g>
<g><path style="opacity:1" fill="#fadd9e" d="M 324.5,100.5 C 325.993,101.312 326.66,102.645 326.5,104.5C 326.48,105.726 326.147,106.726 325.5,107.5C 325.552,105.097 325.219,102.764 324.5,100.5 Z"/></g>
<g><path style="opacity:1" fill="#fbd384" d="M 349.5,100.5 C 349.5,103.5 349.5,106.5 349.5,109.5C 346.833,106.5 346.833,103.5 349.5,100.5 Z"/></g>
<g><path style="opacity:1" fill="#fdecc7" d="M 360.5,109.5 C 358.625,111.239 356.292,112.239 353.5,112.5C 351.962,112.547 350.962,111.88 350.5,110.5C 353.902,110.658 357.236,110.324 360.5,109.5 Z"/></g>
<g><path style="opacity:1" fill="#e5a6ac" d="M 213.5,113.5 C 209.434,113.307 205.434,113.64 201.5,114.5C 201.611,113.883 201.944,113.383 202.5,113C 206.358,112.19 210.024,112.357 213.5,113.5 Z"/></g>
<g><path style="opacity:1" fill="#e3a0a5" d="M 388.5,113.5 C 384.131,113.467 379.798,113.8 375.5,114.5C 377.634,112.967 380.134,112.3 383,112.5C 385.033,112.506 386.866,112.839 388.5,113.5 Z"/></g>
<g><path style="opacity:1" fill="#c72633" d="M 213.5,113.5 C 225.175,117.311 230.842,125.478 230.5,138C 231.507,146.004 228.84,152.337 222.5,157C 218.858,158.27 215.192,159.436 211.5,160.5C 221.08,169.628 231.747,177.295 243.5,183.5C 252.599,186.61 259.766,184.277 265,176.5C 266.544,170.255 264.377,165.921 258.5,163.5C 258.389,162.883 258.056,162.383 257.5,162C 253.973,161.192 250.64,161.359 247.5,162.5C 245.219,163.207 243.052,164.207 241,165.5C 241.22,156.384 245.053,149.384 252.5,144.5C 258.441,143.587 264.441,143.254 270.5,143.5C 277.344,145.748 282.344,150.081 285.5,156.5C 287.294,165.022 287.961,173.689 287.5,182.5C 287.634,184.292 287.301,185.958 286.5,187.5C 284.926,189.102 284.259,191.102 284.5,193.5C 279.958,201.872 273.291,208.039 264.5,212C 255.954,213.479 247.954,212.312 240.5,208.5C 240.027,207.094 239.027,206.427 237.5,206.5C 234.033,204.933 230.7,203.099 227.5,201C 217.156,189.99 206.156,179.657 194.5,170C 184.299,163.889 173.632,159.055 162.5,155.5C 162.082,154.778 161.416,154.278 160.5,154C 157.854,153.503 155.187,153.336 152.5,153.5C 149.713,152.523 146.713,152.19 143.5,152.5C 137.681,151.672 131.681,151.172 125.5,151C 126.71,149.961 127.71,148.794 128.5,147.5C 132.667,143.594 137.667,141.094 143.5,140C 151.696,137.883 160.029,137.05 168.5,137.5C 171.974,138.525 175.64,139.192 179.5,139.5C 185.173,141.506 190.507,144.339 195.5,148C 201.619,150.603 207.119,149.77 212,145.5C 212.667,144.5 212.667,143.5 212,142.5C 205.345,144.654 199.512,143.32 194.5,138.5C 192.758,133.697 192.091,128.697 192.5,123.5C 194.468,119.531 197.468,116.531 201.5,114.5C 205.434,113.64 209.434,113.307 213.5,113.5 Z"/></g>
<g><path style="opacity:1" fill="#fcc965" d="M 273.5,113.5 C 276.807,114.051 280.14,114.384 283.5,114.5C 282.56,118.499 280.227,121.499 276.5,123.5C 277.543,120.944 279.21,118.777 281.5,117C 278.401,116.613 275.734,115.446 273.5,113.5 Z"/></g>
<g><path style="opacity:1" fill="#c72632" d="M 388.5,113.5 C 399.311,117.67 402.811,125.337 399,136.5C 397.293,138.037 395.793,139.704 394.5,141.5C 389.433,144.033 384.433,144.033 379.5,141.5C 379.01,145.057 380.677,147.391 384.5,148.5C 386.966,149.634 389.633,149.801 392.5,149C 399.676,144.748 407.343,141.582 415.5,139.5C 422.412,138.114 429.412,137.447 436.5,137.5C 439.974,138.525 443.64,139.192 447.5,139.5C 450.167,140.5 452.833,141.5 455.5,142.5C 457.033,144.245 459.033,145.245 461.5,145.5C 464.128,147.488 466.795,149.488 469.5,151.5C 458.805,150.968 448.139,151.635 437.5,153.5C 434.505,153.294 431.838,153.96 429.5,155.5C 427.228,156.319 424.894,156.985 422.5,157.5C 419.843,157.935 417.509,158.935 415.5,160.5C 399.986,166.666 386.986,176.333 376.5,189.5C 373.167,192.167 370.167,195.167 367.5,198.5C 361.555,202.813 355.222,206.647 348.5,210C 334.504,215.662 322.67,212.828 313,201.5C 302.235,185.884 300.901,169.55 309,152.5C 311.766,149.223 314.933,146.557 318.5,144.5C 323.346,142.961 328.346,142.294 333.5,142.5C 339.74,143.664 344.406,146.997 347.5,152.5C 347.66,154.153 348.326,155.486 349.5,156.5C 349.259,158.898 349.926,160.898 351.5,162.5C 352.776,163.386 352.776,164.386 351.5,165.5C 346.14,162.724 340.474,161.89 334.5,163C 332.416,163.697 330.749,164.864 329.5,166.5C 328.542,166.953 327.708,167.619 327,168.5C 326.199,171.367 326.366,174.034 327.5,176.5C 331.859,184.203 338.526,186.703 347.5,184C 358.679,177.578 369.346,170.412 379.5,162.5C 380.404,161.791 380.737,160.791 380.5,159.5C 378.5,159.5 376.5,159.5 374.5,159.5C 370.502,158.163 367.168,155.83 364.5,152.5C 364.443,151.391 364.11,150.391 363.5,149.5C 362.007,141.089 362.34,132.755 364.5,124.5C 366.587,123.415 367.92,121.749 368.5,119.5C 369.262,117.738 370.596,116.738 372.5,116.5C 374.027,116.573 375.027,115.906 375.5,114.5C 379.798,113.8 384.131,113.467 388.5,113.5 Z"/></g>
<g><path style="opacity:1" fill="#d87880" d="M 375.5,114.5 C 375.027,115.906 374.027,116.573 372.5,116.5C 372.973,115.094 373.973,114.427 375.5,114.5 Z"/></g>
<g><path style="opacity:1" fill="#d67074" d="M 368.5,119.5 C 367.92,121.749 366.587,123.415 364.5,124.5C 365.08,122.251 366.413,120.585 368.5,119.5 Z"/></g>
<g><path style="opacity:1" fill="#e9b2b5" d="M 192.5,123.5 C 192.091,128.697 192.758,133.697 194.5,138.5C 193.25,138.423 192.417,137.756 192,136.5C 189.876,131.95 190.042,127.616 192.5,123.5 Z"/></g>
<g><path style="opacity:1" fill="#ca444d" d="M 364.5,124.5 C 362.34,132.755 362.007,141.089 363.5,149.5C 363.167,149.5 362.833,149.5 362.5,149.5C 361.454,142.87 361.287,136.203 362,129.5C 362.374,127.509 363.207,125.842 364.5,124.5 Z"/></g>
<g><path style="opacity:1" fill="#e0979c" d="M 436.5,137.5 C 429.412,137.447 422.412,138.114 415.5,139.5C 417.026,137.87 419.026,137.037 421.5,137C 426.684,136.184 431.684,136.35 436.5,137.5 Z"/></g>
<g><path style="opacity:1" fill="#ebbdbf" d="M 168.5,137.5 C 172.489,137.116 176.155,137.783 179.5,139.5C 175.64,139.192 171.974,138.525 168.5,137.5 Z"/></g>
<g><path style="opacity:1" fill="#e9b3b6" d="M 436.5,137.5 C 439.518,137.335 442.518,137.502 445.5,138C 446.416,138.278 447.082,138.778 447.5,139.5C 443.64,139.192 439.974,138.525 436.5,137.5 Z"/></g>
<g><path style="opacity:1" fill="#cc4e55" d="M 270.5,143.5 C 264.441,143.254 258.441,143.587 252.5,144.5C 252.611,143.883 252.944,143.383 253.5,143C 259.387,140.859 265.054,141.026 270.5,143.5 Z"/></g>
<g><path style="opacity:1" fill="#cf5d65" d="M 333.5,142.5 C 328.346,142.294 323.346,142.961 318.5,144.5C 319.842,143.207 321.509,142.374 323.5,142C 327.027,141.192 330.36,141.359 333.5,142.5 Z"/></g>
<g><path style="opacity:1" fill="#efcbcd" d="M 394.5,141.5 C 394.119,142.931 393.119,143.764 391.5,144C 388.167,144.333 384.833,144.667 381.5,145C 382.71,146.039 383.71,147.206 384.5,148.5C 380.677,147.391 379.01,145.057 379.5,141.5C 384.433,144.033 389.433,144.033 394.5,141.5 Z"/></g>
<g><path style="opacity:1" fill="#e1959a" d="M 455.5,142.5 C 457.967,142.755 459.967,143.755 461.5,145.5C 459.033,145.245 457.033,144.245 455.5,142.5 Z"/></g>
<g><path style="opacity:1" fill="#ce535c" d="M 128.5,147.5 C 127.71,148.794 126.71,149.961 125.5,151C 131.681,151.172 137.681,151.672 143.5,152.5C 136.313,152.825 129.313,152.491 122.5,151.5C 124.246,149.748 126.246,148.415 128.5,147.5 Z"/></g>
<g><path style="opacity:1" fill="#e29fa4" d="M 362.5,149.5 C 362.833,149.5 363.167,149.5 363.5,149.5C 364.11,150.391 364.443,151.391 364.5,152.5C 363.094,152.027 362.427,151.027 362.5,149.5 Z"/></g>
<g><path style="opacity:1" fill="#e8b0b5" d="M 122.5,151.5 C 129.313,152.491 136.313,152.825 143.5,152.5C 146.713,152.19 149.713,152.523 152.5,153.5C 142.145,153.832 131.812,153.499 121.5,152.5C 121.624,151.893 121.957,151.56 122.5,151.5 Z"/></g>
<g><path style="opacity:1" fill="#e39fa4" d="M 469.5,151.5 C 470.043,151.56 470.376,151.893 470.5,152.5C 459.52,153.499 448.52,153.832 437.5,153.5C 448.139,151.635 458.805,150.968 469.5,151.5 Z"/></g>
<g><path style="opacity:1" fill="#d3646b" d="M 152.5,153.5 C 155.187,153.336 157.854,153.503 160.5,154C 161.416,154.278 162.082,154.778 162.5,155.5C 158.96,155.247 155.627,154.581 152.5,153.5 Z"/></g>
<g><path style="opacity:1" fill="#e09aa0" d="M 347.5,152.5 C 349.104,153.287 349.771,154.62 349.5,156.5C 348.326,155.486 347.66,154.153 347.5,152.5 Z"/></g>
<g><path style="opacity:1" fill="#d87780" d="M 437.5,153.5 C 435.095,154.768 432.428,155.435 429.5,155.5C 431.838,153.96 434.505,153.294 437.5,153.5 Z"/></g>
<g><path style="opacity:1" fill="#e7a9af" d="M 374.5,159.5 C 376.5,159.5 378.5,159.5 380.5,159.5C 380.737,160.791 380.404,161.791 379.5,162.5C 378.198,160.972 376.531,159.972 374.5,159.5 Z"/></g>
<g><path style="opacity:1" fill="#ecbcc0" d="M 422.5,157.5 C 420.824,159.834 418.491,160.834 415.5,160.5C 417.509,158.935 419.843,157.935 422.5,157.5 Z"/></g>
<g><path style="opacity:1" fill="#d97981" d="M 247.5,162.5 C 250.64,161.359 253.973,161.192 257.5,162C 258.056,162.383 258.389,162.883 258.5,163.5C 254.901,162.656 251.234,162.323 247.5,162.5 Z"/></g>
<g><path style="opacity:1" fill="#d9747b" d="M 349.5,156.5 C 351.074,158.102 351.741,160.102 351.5,162.5C 349.926,160.898 349.259,158.898 349.5,156.5 Z"/></g>
<g><path style="opacity:1" fill="#d4696f" d="M 285.5,156.5 C 289.801,164.902 290.468,173.569 287.5,182.5C 287.961,173.689 287.294,165.022 285.5,156.5 Z"/></g>
<g><path style="opacity:1" fill="#8c4826" d="M 207.5,199.5 C 198.833,200.167 190.167,200.833 181.5,201.5C 175.594,202.641 169.928,204.308 164.5,206.5C 162.033,206.755 160.033,207.755 158.5,209.5C 149.929,213.902 143.096,220.235 138,228.5C 136.583,227.922 135.75,226.922 135.5,225.5C 135.573,223.973 134.906,222.973 133.5,222.5C 130.356,216.066 128.023,209.399 126.5,202.5C 126.375,196.797 126.708,191.13 127.5,185.5C 132.079,178.117 138.745,173.617 147.5,172C 154.167,171.333 160.833,171.333 167.5,172C 182.894,178.237 196.228,187.404 207.5,199.5 Z"/></g>
<g><path style="opacity:1" fill="#d97f85" d="M 329.5,166.5 C 327.822,169.552 327.155,172.885 327.5,176.5C 326.366,174.034 326.199,171.367 327,168.5C 327.708,167.619 328.542,166.953 329.5,166.5 Z"/></g>
<g><path style="opacity:1" fill="#8c4927" d="M 408.5,201.5 C 400.833,200.833 393.167,200.167 385.5,199.5C 393.029,191.072 401.696,184.072 411.5,178.5C 413.848,178.408 415.514,177.408 416.5,175.5C 432.921,167.643 448.254,169.477 462.5,181C 465.868,185.213 467.201,190.047 466.5,195.5C 466.587,207.957 462.753,218.957 455,228.5C 443.363,212.929 427.863,203.929 408.5,201.5 Z"/></g>
<g><path style="opacity:1" fill="#af806a" d="M 416.5,175.5 C 415.514,177.408 413.848,178.408 411.5,178.5C 412.659,176.75 414.326,175.75 416.5,175.5 Z"/></g>
<g><path style="opacity:1" fill="#e6a5a9" d="M 286.5,187.5 C 286.741,189.898 286.074,191.898 284.5,193.5C 284.259,191.102 284.926,189.102 286.5,187.5 Z"/></g>
<g><path style="opacity:1" fill="#af846e" d="M 127.5,185.5 C 126.708,191.13 126.375,196.797 126.5,202.5C 125.35,197.684 125.184,192.684 126,187.5C 126.278,186.584 126.778,185.918 127.5,185.5 Z"/></g>
<g><path style="opacity:1" fill="#efc8c9" d="M 376.5,189.5 C 374.5,193.5 371.5,196.5 367.5,198.5C 370.167,195.167 373.167,192.167 376.5,189.5 Z"/></g>
<g><path style="opacity:1" fill="#c4a492" d="M 207.5,199.5 C 209.93,200.653 209.93,201.653 207.5,202.5C 198.868,201.557 190.202,201.224 181.5,201.5C 190.167,200.833 198.833,200.167 207.5,199.5 Z"/></g>
<g><path style="opacity:1" fill="#c6a796" d="M 385.5,199.5 C 393.167,200.167 400.833,200.833 408.5,201.5C 400.797,201.232 393.13,201.565 385.5,202.5C 383.07,201.653 383.07,200.653 385.5,199.5 Z"/></g>
<g><path style="opacity:1" fill="#db7e86" d="M 237.5,206.5 C 239.027,206.427 240.027,207.094 240.5,208.5C 238.973,208.573 237.973,207.906 237.5,206.5 Z"/></g>
<g><path style="opacity:1" fill="#c7a999" d="M 164.5,206.5 C 162.967,208.245 160.967,209.245 158.5,209.5C 160.033,207.755 162.033,206.755 164.5,206.5 Z"/></g>
<g><path style="opacity:1" fill="#fdefcd" d="M 98.5,211.5 C 93.4635,211.413 88.4635,211.746 83.5,212.5C 86.1864,211.009 89.1864,210.343 92.5,210.5C 94.6965,210.505 96.6965,210.838 98.5,211.5 Z"/></g>
<g><path style="opacity:1" fill="#8c4927" d="M 303.5,232.5 C 300.696,231.362 297.696,231.195 294.5,232C 293.944,232.383 293.611,232.883 293.5,233.5C 292.178,233.67 291.011,233.337 290,232.5C 289.167,230 288.333,227.5 287.5,225C 288.285,222.406 289.618,220.239 291.5,218.5C 293.834,216.824 294.834,214.491 294.5,211.5C 295.892,208.838 297.726,206.505 300,204.5C 303.668,210.504 307.335,216.504 311,222.5C 311.458,226.049 310.792,229.382 309,232.5C 307.172,233.752 305.339,233.752 303.5,232.5 Z"/></g>
<g><path style="opacity:1" fill="#fdb93c" d="M 98.5,211.5 C 99.5676,212.434 100.901,212.768 102.5,212.5C 104.033,214.245 106.033,215.245 108.5,215.5C 116.652,220.652 122.652,227.652 126.5,236.5C 127.129,239.397 128.129,242.064 129.5,244.5C 132.041,252.508 133.041,260.842 132.5,269.5C 133.013,281.829 133.513,294.163 134,306.5C 134.186,309.036 134.686,311.369 135.5,313.5C 137.329,328.494 139.496,343.494 142,358.5C 145.442,365.641 148.609,372.974 151.5,380.5C 150.06,381.363 148.726,381.363 147.5,380.5C 138.317,362.453 131.817,343.453 128,323.5C 127.906,304.467 127.24,285.467 126,266.5C 120.083,238.476 102.917,225.309 74.5,227C 54.092,235.98 45.9253,251.48 50,273.5C 51.7391,275.71 52.9057,278.21 53.5,281C 57.5054,287.672 62.8387,293.005 69.5,297C 74.4285,298.418 79.4285,298.751 84.5,298C 73.0908,290.602 68.5908,280.102 71,266.5C 74.4695,253.681 82.6362,249.014 95.5,252.5C 98.8333,254.833 102.167,257.167 105.5,259.5C 107.909,263.118 109.409,267.118 110,271.5C 111.356,290.141 112.19,308.808 112.5,327.5C 107.756,327.96 103.756,326.46 100.5,323C 96.5475,322.088 92.8809,322.755 89.5,325C 74.9846,337.976 71.6513,353.143 79.5,370.5C 84.9207,379.387 92.254,381.553 101.5,377C 106.23,371.91 107.396,366.077 105,359.5C 102.916,355.664 100.583,351.997 98,348.5C 97.1816,345.773 97.3483,343.106 98.5,340.5C 99.6074,339.978 100.774,339.645 102,339.5C 106.074,341.788 110.241,343.954 114.5,346C 117.453,349.408 120.287,352.908 123,356.5C 129.42,390.001 147.92,414.334 178.5,429.5C 179.298,429.043 179.631,428.376 179.5,427.5C 182.287,429.72 184.62,432.386 186.5,435.5C 168.018,437.064 152.518,431.064 140,417.5C 136.579,412.929 133.412,408.263 130.5,403.5C 129.733,399.851 128.4,396.518 126.5,393.5C 125.167,390.167 123.833,386.833 122.5,383.5C 122.13,378.578 121.13,373.911 119.5,369.5C 118.129,364.361 116.296,359.361 114,354.5C 112.629,352.959 111.129,351.625 109.5,350.5C 107.983,348.816 106.15,347.483 104,346.5C 102.415,348.201 102.915,349.535 105.5,350.5C 114.293,361.009 114.793,372.009 107,383.5C 100.861,389.064 93.694,390.897 85.5,389C 78.6667,386.167 73.8333,381.333 71,374.5C 67.2994,360.155 67.7994,345.988 72.5,332C 74.7332,330.003 76.2332,327.503 77,324.5C 78.3712,322.959 79.8712,321.625 81.5,320.5C 83.6968,319.155 86.0302,317.989 88.5,317C 92.8206,316.501 97.1539,316.334 101.5,316.5C 103.772,317.441 105.772,318.774 107.5,320.5C 107.783,321.289 108.283,321.956 109,322.5C 109.801,319.633 109.634,316.966 108.5,314.5C 107.893,307.16 107.227,299.827 106.5,292.5C 106.508,285.876 105.508,279.543 103.5,273.5C 100.125,262.134 92.4586,257.301 80.5,259C 74.8232,262.636 72.9899,267.803 75,274.5C 79.3353,283.505 86.1686,289.672 95.5,293C 92.9518,298.608 88.6185,301.774 82.5,302.5C 76.4638,302.64 70.4638,302.307 64.5,301.5C 58.9193,298.587 54.2526,294.587 50.5,289.5C 50.2451,287.033 49.2451,285.033 47.5,283.5C 41.6816,268.922 42.1816,254.588 49,240.5C 57.4316,227.221 68.9316,217.887 83.5,212.5C 88.4635,211.746 93.4635,211.413 98.5,211.5 Z"/></g>
<g><path style="opacity:1" fill="#fcdea5" d="M 102.5,212.5 C 104.967,212.755 106.967,213.755 108.5,215.5C 106.033,215.245 104.033,214.245 102.5,212.5 Z"/></g>
<g><path style="opacity:1" fill="#d8686e" d="M 213.5,215.5 C 203.801,215.275 194.134,215.608 184.5,216.5C 184.918,215.778 185.584,215.278 186.5,215C 195.676,214.176 204.676,214.343 213.5,215.5 Z"/></g>
<g><path style="opacity:1" fill="#ab7e66" d="M 294.5,211.5 C 294.834,214.491 293.834,216.824 291.5,218.5C 291.935,215.843 292.935,213.509 294.5,211.5 Z"/></g>
<g><path style="opacity:1" fill="#cd2730" d="M 452.5,252.5 C 453.813,260.43 454.48,268.43 454.5,276.5C 454.395,280.319 453.562,283.986 452,287.5C 449.579,291.071 447.413,294.738 445.5,298.5C 443.167,300.167 441.167,302.167 439.5,304.5C 434.473,308.853 429.14,312.853 423.5,316.5C 420.603,317.129 417.936,318.129 415.5,319.5C 399.359,324.01 383.359,323.177 367.5,317C 358.325,312.491 349.658,307.158 341.5,301C 338.833,300.333 336.167,300.333 333.5,301C 330.673,304.239 327.34,306.739 323.5,308.5C 321.184,309.16 318.851,309.827 316.5,310.5C 315.584,310.457 314.917,310.124 314.5,309.5C 316.587,308.415 317.92,306.749 318.5,304.5C 320.98,300.53 322.647,296.197 323.5,291.5C 323.001,286.168 320.667,281.834 316.5,278.5C 312.633,286.381 307.633,293.548 301.5,300C 297.286,300.963 293.786,299.796 291,296.5C 287.3,291.097 284.133,285.43 281.5,279.5C 280.053,278.115 279.053,278.448 278.5,280.5C 274.818,283.371 273.152,287.205 273.5,292C 273.805,298.776 276.638,304.276 282,308.5C 282.725,310.157 282.225,311.157 280.5,311.5C 278.898,309.926 276.898,309.259 274.5,309.5C 272.5,308.167 270.5,306.833 268.5,305.5C 267.415,303.413 265.749,302.08 263.5,301.5C 260.396,300.225 257.396,300.225 254.5,301.5C 252.973,301.427 251.973,302.094 251.5,303.5C 247.656,305.587 243.989,307.92 240.5,310.5C 238.326,310.75 236.659,311.75 235.5,313.5C 232.314,314.597 229.314,315.93 226.5,317.5C 223.99,317.927 221.657,318.593 219.5,319.5C 213.155,321.763 206.488,322.763 199.5,322.5C 194.245,322.666 189.245,321.999 184.5,320.5C 180.767,318.589 176.767,317.256 172.5,316.5C 158.974,308.969 149.307,297.969 143.5,283.5C 142.343,273.844 142.343,264.177 143.5,254.5C 144.367,250.776 145.534,247.109 147,243.5C 147.852,242.429 148.685,241.429 149.5,240.5C 151.587,239.415 152.92,237.749 153.5,235.5C 162.032,226.393 172.365,220.059 184.5,216.5C 194.134,215.608 203.801,215.275 213.5,215.5C 215.5,215.5 217.5,215.5 219.5,215.5C 221.838,217.04 224.505,217.706 227.5,217.5C 236.49,220.504 244.49,225.337 251.5,232C 255.474,234.659 259.808,236.159 264.5,236.5C 266.5,237.167 268.5,237.833 270.5,238.5C 262.143,245.733 253.143,246.4 243.5,240.5C 242.738,238.738 241.404,237.738 239.5,237.5C 233.855,234.678 228.189,231.844 222.5,229C 213.861,227.207 205.194,227.041 196.5,228.5C 192.299,229.223 188.632,230.89 185.5,233.5C 166.599,242.974 159.932,257.974 165.5,278.5C 165.66,280.153 166.326,281.486 167.5,282.5C 172.766,291.419 180.433,297.419 190.5,300.5C 192.617,302.655 195.284,303.655 198.5,303.5C 206.629,304.784 214.629,304.784 222.5,303.5C 225.152,303.59 227.485,302.924 229.5,301.5C 238.327,297.242 245.327,290.909 250.5,282.5C 251.79,281.942 252.623,280.942 253,279.5C 254.156,275.582 254.656,271.582 254.5,267.5C 255.95,264.215 258.283,261.715 261.5,260C 266.194,259.436 270.86,259.603 275.5,260.5C 277.308,261.394 279.142,262.394 281,263.5C 281.765,263.43 282.265,263.097 282.5,262.5C 283.909,258.684 285.576,255.017 287.5,251.5C 288.906,251.027 289.573,250.027 289.5,248.5C 289.414,247.504 289.748,246.671 290.5,246C 295.5,245.333 300.5,245.333 305.5,246C 308.594,251.354 311.261,256.854 313.5,262.5C 314.097,263.139 314.93,263.472 316,263.5C 322.708,261.752 329.542,261.086 336.5,261.5C 338.371,261.859 339.871,262.859 341,264.5C 342.791,270.452 344.458,276.452 346,282.5C 351.663,292.338 359.829,299.005 370.5,302.5C 370.918,303.222 371.584,303.722 372.5,304C 380.345,304.822 388.011,304.656 395.5,303.5C 398.829,303.785 401.829,303.118 404.5,301.5C 407.314,299.93 410.314,298.597 413.5,297.5C 415.027,297.573 416.027,296.906 416.5,295.5C 418.027,295.573 419.027,294.906 419.5,293.5C 430.678,284.202 434.845,272.202 432,257.5C 431.226,253.951 429.893,250.618 428,247.5C 421.289,240.118 413.456,234.284 404.5,230C 395.441,227.62 386.441,227.12 377.5,228.5C 373.327,228.667 369.66,230 366.5,232.5C 360.888,235.642 355.221,238.809 349.5,242C 340.611,246.128 332.611,244.961 325.5,238.5C 327.833,237.833 330.167,237.167 332.5,236.5C 341.35,234.073 349.017,229.573 355.5,223C 359.475,220.854 363.475,219.02 367.5,217.5C 370.829,217.785 373.829,217.118 376.5,215.5C 404.575,210.247 428.075,218.247 447,239.5C 449.335,243.687 451.169,248.021 452.5,252.5 Z"/></g>
<g><path style="opacity:1" fill="#e3989b" d="M 219.5,215.5 C 222.428,215.565 225.095,216.232 227.5,217.5C 224.505,217.706 221.838,217.04 219.5,215.5 Z"/></g>
<g><path style="opacity:1" fill="#e6a1a4" d="M 376.5,215.5 C 373.829,217.118 370.829,217.785 367.5,217.5C 370.273,216.343 373.273,215.676 376.5,215.5 Z"/></g>
<g><path style="opacity:1" fill="#fbc154" d="M 521.5,218.5 C 519.43,218.551 517.597,217.885 516,216.5C 513.55,217.841 512.05,217.008 511.5,214C 503.815,213.403 496.148,213.57 488.5,214.5C 488.911,217.276 488.078,217.943 486,216.5C 484.594,217.414 483.094,218.08 481.5,218.5C 486.302,213.448 492.302,211.115 499.5,211.5C 507.91,210.884 515.243,213.217 521.5,218.5 Z"/></g>
<g><path style="opacity:1" fill="#bd9c88" d="M 133.5,222.5 C 134.906,222.973 135.573,223.973 135.5,225.5C 134.094,225.027 133.427,224.027 133.5,222.5 Z"/></g>
<g><path style="opacity:1" fill="#f5ac22" d="M 151.5,380.5 C 152.646,383.828 152.813,387.161 152,390.5C 157.974,405.294 167.141,417.627 179.5,427.5C 179.631,428.376 179.298,429.043 178.5,429.5C 147.92,414.334 129.42,390.001 123,356.5C 120.287,352.908 117.453,349.408 114.5,346C 110.241,343.954 106.074,341.788 102,339.5C 100.774,339.645 99.6074,339.978 98.5,340.5C 97.3483,343.106 97.1816,345.773 98,348.5C 100.583,351.997 102.916,355.664 105,359.5C 107.396,366.077 106.23,371.91 101.5,377C 92.254,381.553 84.9207,379.387 79.5,370.5C 71.6513,353.143 74.9846,337.976 89.5,325C 92.8809,322.755 96.5475,322.088 100.5,323C 103.756,326.46 107.756,327.96 112.5,327.5C 112.19,308.808 111.356,290.141 110,271.5C 109.409,267.118 107.909,263.118 105.5,259.5C 102.167,257.167 98.8333,254.833 95.5,252.5C 82.6362,249.014 74.4695,253.681 71,266.5C 68.5908,280.102 73.0908,290.602 84.5,298C 79.4285,298.751 74.4285,298.418 69.5,297C 62.8387,293.005 57.5054,287.672 53.5,281C 52.9057,278.21 51.7391,275.71 50,273.5C 45.9253,251.48 54.092,235.98 74.5,227C 102.917,225.309 120.083,238.476 126,266.5C 127.24,285.467 127.906,304.467 128,323.5C 131.817,343.453 138.317,362.453 147.5,380.5C 148.726,381.363 150.06,381.363 151.5,380.5 Z"/></g>
<g><path style="opacity:1" fill="#eaabae" d="M 196.5,228.5 C 193.291,230.934 189.624,232.601 185.5,233.5C 188.632,230.89 192.299,229.223 196.5,228.5 Z"/></g>
<g><path style="opacity:1" fill="#bd9784" d="M 303.5,232.5 C 300.098,232.342 296.764,232.676 293.5,233.5C 293.611,232.883 293.944,232.383 294.5,232C 297.696,231.195 300.696,231.362 303.5,232.5 Z"/></g>
<g><path style="opacity:1" fill="#f3d0d1" d="M 377.5,228.5 C 374.2,230.642 370.533,231.975 366.5,232.5C 369.66,230 373.327,228.667 377.5,228.5 Z"/></g>
<g><path style="opacity:1" fill="#442a23" d="M 241.5,279.5 C 240.094,279.973 239.427,280.973 239.5,282.5C 235.407,286.929 230.741,290.596 225.5,293.5C 222.848,293.41 220.515,294.076 218.5,295.5C 210.381,295.886 202.381,295.219 194.5,293.5C 187.167,289.5 181.5,283.833 177.5,276.5C 177.741,274.102 177.074,272.102 175.5,270.5C 174.765,252.405 183.099,240.905 200.5,236C 220.663,232.165 235.163,239.332 244,257.5C 245.101,265.118 244.268,272.452 241.5,279.5 Z"/></g>
<g><path style="opacity:1" fill="#da7e84" d="M 264.5,236.5 C 267.247,236.187 269.914,236.52 272.5,237.5C 272.043,238.298 271.376,238.631 270.5,238.5C 268.5,237.833 266.5,237.167 264.5,236.5 Z"/></g>
<g><path style="opacity:1" fill="#dc858c" d="M 332.5,236.5 C 330.167,237.167 327.833,237.833 325.5,238.5C 324.711,238.217 324.044,237.717 323.5,237C 326.482,236.502 329.482,236.335 332.5,236.5 Z"/></g>
<g><path style="opacity:1" fill="#442922" d="M 402.5,240.5 C 399.922,240.98 397.588,241.98 395.5,243.5C 391.352,248.172 391.685,252.672 396.5,257C 403.804,257.533 407.471,254.033 407.5,246.5C 407.842,245.662 408.508,245.328 409.5,245.5C 416.802,253.026 419.302,262.026 417,272.5C 416.153,274.854 415.32,277.188 414.5,279.5C 413.094,279.973 412.427,280.973 412.5,282.5C 408.409,286.927 403.743,290.593 398.5,293.5C 389.613,295.747 380.613,296.081 371.5,294.5C 362.75,291.748 356.083,286.414 351.5,278.5C 349.716,271.649 349.05,264.649 349.5,257.5C 357.967,239.266 372.301,232.099 392.5,236C 396.383,236.454 399.716,237.954 402.5,240.5 Z"/></g>
<g><path style="opacity:1" fill="#fce0ab" d="M 126.5,236.5 C 128.655,238.617 129.655,241.284 129.5,244.5C 128.129,242.064 127.129,239.397 126.5,236.5 Z"/></g>
<g><path style="opacity:1" fill="#d8656a" d="M 153.5,235.5 C 152.92,237.749 151.587,239.415 149.5,240.5C 150.08,238.251 151.413,236.585 153.5,235.5 Z"/></g>
<g><path style="opacity:1" fill="#dc767b" d="M 239.5,237.5 C 241.404,237.738 242.738,238.738 243.5,240.5C 241.596,240.262 240.262,239.262 239.5,237.5 Z"/></g>
<g><path style="opacity:1" fill="#6c5853" d="M 402.5,240.5 C 405.135,241.811 407.469,243.478 409.5,245.5C 408.508,245.328 407.842,245.662 407.5,246.5C 404.25,242.715 400.25,241.715 395.5,243.5C 397.588,241.98 399.922,240.98 402.5,240.5 Z"/></g>
<g><path style="opacity:1" fill="#f5f4f3" d="M 229.5,255.5 C 225.968,255.69 222.635,255.023 219.5,253.5C 217.029,245.266 220.029,241.766 228.5,243C 233.33,245.081 234.663,248.581 232.5,253.5C 231.643,254.425 230.643,255.092 229.5,255.5 Z"/></g>
<g><path style="opacity:1" fill="#f1f0ef" d="M 407.5,246.5 C 407.471,254.033 403.804,257.533 396.5,257C 391.685,252.672 391.352,248.172 395.5,243.5C 400.25,241.715 404.25,242.715 407.5,246.5 Z"/></g>
<g><path style="opacity:1" fill="#e69ea0" d="M 289.5,248.5 C 289.573,250.027 288.906,251.027 287.5,251.5C 287.427,249.973 288.094,248.973 289.5,248.5 Z"/></g>
<g><path style="opacity:1" fill="#c7c0bd" d="M 219.5,253.5 C 222.635,255.023 225.968,255.69 229.5,255.5C 225.562,258.508 222.228,257.842 219.5,253.5 Z"/></g>
<g><path style="opacity:1" fill="#eebdc0" d="M 275.5,260.5 C 278.108,260.4 280.442,261.067 282.5,262.5C 282.265,263.097 281.765,263.43 281,263.5C 279.142,262.394 277.308,261.394 275.5,260.5 Z"/></g>
<g><path style="opacity:1" fill="#d0454b" d="M 336.5,261.5 C 329.542,261.086 322.708,261.752 316,263.5C 314.93,263.472 314.097,263.139 313.5,262.5C 318.31,261.342 323.143,260.342 328,259.5C 331.15,259.36 333.983,260.027 336.5,261.5 Z"/></g>
<g><path style="opacity:1" fill="#d1545c" d="M 452.5,252.5 C 455.258,260.36 455.925,268.36 454.5,276.5C 454.48,268.43 453.813,260.43 452.5,252.5 Z"/></g>
<g><path style="opacity:1" fill="#958682" d="M 349.5,257.5 C 349.05,264.649 349.716,271.649 351.5,278.5C 350.034,277.653 349.2,276.32 349,274.5C 348.182,268.651 348.348,262.985 349.5,257.5 Z"/></g>
<g><path style="opacity:1" fill="#d35057" d="M 143.5,254.5 C 142.343,264.177 142.343,273.844 143.5,283.5C 141.96,278.935 141.293,274.102 141.5,269C 141.293,263.898 141.96,259.065 143.5,254.5 Z"/></g>
<g><path style="opacity:1" fill="#b3a9a6" d="M 175.5,270.5 C 177.074,272.102 177.741,274.102 177.5,276.5C 175.926,274.898 175.259,272.898 175.5,270.5 Z"/></g>
<g><path style="opacity:1" fill="#fce2ae" d="M 460.5,261.5 C 460.941,279.035 460.275,296.368 458.5,313.5C 458.873,295.997 459.54,278.664 460.5,261.5 Z"/></g>
<g><path style="opacity:1" fill="#d65c61" d="M 254.5,267.5 C 254.656,271.582 254.156,275.582 253,279.5C 252.623,280.942 251.79,281.942 250.5,282.5C 251.734,277.366 253.068,272.366 254.5,267.5 Z"/></g>
<g><path style="opacity:1" fill="#e18c91" d="M 281.5,279.5 C 280.391,279.557 279.391,279.89 278.5,280.5C 279.053,278.448 280.053,278.115 281.5,279.5 Z"/></g>
<g><path style="opacity:1" fill="#e4969b" d="M 165.5,278.5 C 167.104,279.287 167.771,280.62 167.5,282.5C 166.326,281.486 165.66,280.153 165.5,278.5 Z"/></g>
<g><path style="opacity:1" fill="#958a86" d="M 241.5,279.5 C 241.573,281.027 240.906,282.027 239.5,282.5C 239.427,280.973 240.094,279.973 241.5,279.5 Z"/></g>
<g><path style="opacity:1" fill="#9e918e" d="M 414.5,279.5 C 414.573,281.027 413.906,282.027 412.5,282.5C 412.427,280.973 413.094,279.973 414.5,279.5 Z"/></g>
<g><path style="opacity:1" fill="#fcdc9f" d="M 103.5,273.5 C 105.508,279.543 106.508,285.876 106.5,292.5C 104.74,286.413 103.74,280.08 103.5,273.5 Z"/></g>
<g><path style="opacity:1" fill="#fce5b7" d="M 132.5,269.5 C 134.379,283.955 135.379,298.622 135.5,313.5C 134.686,311.369 134.186,309.036 134,306.5C 133.513,294.163 133.013,281.829 132.5,269.5 Z"/></g>
<g><path style="opacity:1" fill="#fce1a9" d="M 47.5,283.5 C 49.2451,285.033 50.2451,287.033 50.5,289.5C 48.7549,287.967 47.7549,285.967 47.5,283.5 Z"/></g>
<g><path style="opacity:1" fill="#9d908d" d="M 225.5,293.5 C 223.485,294.924 221.152,295.59 218.5,295.5C 220.515,294.076 222.848,293.41 225.5,293.5 Z"/></g>
<g><path style="opacity:1" fill="#dc787e" d="M 419.5,293.5 C 419.027,294.906 418.027,295.573 416.5,295.5C 416.973,294.094 417.973,293.427 419.5,293.5 Z"/></g>
<g><path style="opacity:1" fill="#93837f" d="M 194.5,293.5 C 202.381,295.219 210.381,295.886 218.5,295.5C 212.681,296.653 206.681,296.819 200.5,296C 198.277,295.434 196.277,294.6 194.5,293.5 Z"/></g>
<g><path style="opacity:1" fill="#9b8c89" d="M 398.5,293.5 C 397.158,294.793 395.491,295.626 393.5,296C 386.833,296.667 380.167,296.667 373.5,296C 372.584,295.722 371.918,295.222 371.5,294.5C 380.613,296.081 389.613,295.747 398.5,293.5 Z"/></g>
<g><path style="opacity:1" fill="#da767c" d="M 416.5,295.5 C 416.027,296.906 415.027,297.573 413.5,297.5C 413.973,296.094 414.973,295.427 416.5,295.5 Z"/></g>
<g><path style="opacity:1" fill="#dd7d83" d="M 190.5,300.5 C 193.397,301.129 196.064,302.129 198.5,303.5C 195.284,303.655 192.617,302.655 190.5,300.5 Z"/></g>
<g><path style="opacity:1" fill="#d76468" d="M 263.5,301.5 C 265.749,302.08 267.415,303.413 268.5,305.5C 266.251,304.92 264.585,303.587 263.5,301.5 Z"/></g>
<g><path style="opacity:1" fill="#fbc869" d="M 64.5,301.5 C 70.4638,302.307 76.4638,302.64 82.5,302.5C 80.3655,304.033 77.8655,304.7 75,304.5C 71.024,304.782 67.524,303.782 64.5,301.5 Z"/></g>
<g><path style="opacity:1" fill="#df858b" d="M 229.5,301.5 C 227.485,302.924 225.152,303.59 222.5,303.5C 224.515,302.076 226.848,301.41 229.5,301.5 Z"/></g>
<g><path style="opacity:1" fill="#e9a6a9" d="M 254.5,301.5 C 254.027,302.906 253.027,303.573 251.5,303.5C 251.973,302.094 252.973,301.427 254.5,301.5 Z"/></g>
<g><path style="opacity:1" fill="#e08a8f" d="M 404.5,301.5 C 401.829,303.118 398.829,303.785 395.5,303.5C 398.273,302.343 401.273,301.676 404.5,301.5 Z"/></g>
<g><path style="opacity:1" fill="#e6a1a5" d="M 370.5,302.5 C 378.8,303.371 387.133,303.705 395.5,303.5C 388.011,304.656 380.345,304.822 372.5,304C 371.584,303.722 370.918,303.222 370.5,302.5 Z"/></g>
<g><path style="opacity:1" fill="#eebdbf" d="M 445.5,298.5 C 444.5,301.5 442.5,303.5 439.5,304.5C 441.167,302.167 443.167,300.167 445.5,298.5 Z"/></g>
<g><path style="opacity:1" fill="#fbdca0" d="M 507.5,302.5 C 514.5,303.833 521.5,303.833 528.5,302.5C 525.305,304.03 521.805,304.696 518,304.5C 514.195,304.696 510.695,304.03 507.5,302.5 Z"/></g>
<g><path style="opacity:1" fill="#da6d72" d="M 318.5,304.5 C 317.92,306.749 316.587,308.415 314.5,309.5C 315.08,307.251 316.413,305.585 318.5,304.5 Z"/></g>
<g><path style="opacity:1" fill="#c9a6a0" d="M 339.5,309.5 C 336.167,310.167 332.833,310.833 329.5,311.5C 332.556,308.914 335.889,308.247 339.5,309.5 Z"/></g>
<g><path style="opacity:1" fill="#985046" d="M 286.5,325.5 C 293.989,326.656 301.655,326.822 309.5,326C 311.32,325.8 312.653,324.966 313.5,323.5C 318.574,319.084 323.908,315.084 329.5,311.5C 332.833,310.833 336.167,310.167 339.5,309.5C 342.274,310.723 344.941,312.223 347.5,314C 349.141,315.129 350.141,316.629 350.5,318.5C 350.833,321.167 351.167,323.833 351.5,326.5C 349.784,326.371 348.117,326.038 346.5,325.5C 338.752,322.309 331.419,323.142 324.5,328C 319.466,332.699 314.8,337.699 310.5,343C 308.114,344.193 305.78,345.36 303.5,346.5C 299.5,346.5 295.5,346.5 291.5,346.5C 284.713,342.881 279.38,337.714 275.5,331C 271.984,329.744 268.984,327.744 266.5,325C 259.326,322.592 252.659,323.425 246.5,327.5C 245.414,327.38 244.747,326.713 244.5,325.5C 245.762,322.978 246.429,320.311 246.5,317.5C 248.628,314.87 250.961,312.37 253.5,310C 264.081,309.621 272.748,313.621 279.5,322C 281.86,323.18 284.193,324.347 286.5,325.5 Z"/></g>
<g><path style="opacity:1" fill="#e39197" d="M 274.5,309.5 C 276.898,309.259 278.898,309.926 280.5,311.5C 278.102,311.741 276.102,311.074 274.5,309.5 Z"/></g>
<g><path style="opacity:1" fill="#e8aeb2" d="M 323.5,308.5 C 322.942,309.79 321.942,310.623 320.5,311C 317.832,311.567 315.166,312.067 312.5,312.5C 312.285,310.821 312.952,309.821 314.5,309.5C 314.917,310.124 315.584,310.457 316.5,310.5C 318.851,309.827 321.184,309.16 323.5,308.5 Z"/></g>
<g><path style="opacity:1" fill="#eaacae" d="M 240.5,310.5 C 239.514,312.408 237.848,313.408 235.5,313.5C 236.659,311.75 238.326,310.75 240.5,310.5 Z"/></g>
<g><path style="opacity:1" fill="#fac663" d="M 101.5,316.5 C 97.1539,316.334 92.8206,316.501 88.5,317C 86.0302,317.989 83.6968,319.155 81.5,320.5C 87.1866,314.289 93.8533,312.956 101.5,316.5 Z"/></g>
<g><path style="opacity:1" fill="#da6d71" d="M 172.5,316.5 C 176.767,317.256 180.767,318.589 184.5,320.5C 179.996,320.381 175.996,319.048 172.5,316.5 Z"/></g>
<g><path style="opacity:1" fill="#edb6b9" d="M 226.5,317.5 C 226.389,318.117 226.056,318.617 225.5,319C 223.527,319.495 221.527,319.662 219.5,319.5C 221.657,318.593 223.99,317.927 226.5,317.5 Z"/></g>
<g><path style="opacity:1" fill="#e59397" d="M 423.5,316.5 C 421.383,318.655 418.716,319.655 415.5,319.5C 417.936,318.129 420.603,317.129 423.5,316.5 Z"/></g>
<g><path style="opacity:1" fill="#fce5b2" d="M 485.5,313.5 C 485.338,315.527 485.505,317.527 486,319.5C 486.816,318.177 487.983,317.511 489.5,317.5C 488.492,319.339 486.992,320.672 485,321.5C 484.199,318.633 484.366,315.966 485.5,313.5 Z"/></g>
<g><path style="opacity:1" fill="#fbdfa3" d="M 108.5,314.5 C 109.634,316.966 109.801,319.633 109,322.5C 108.283,321.956 107.783,321.289 107.5,320.5C 108.461,318.735 108.795,316.735 108.5,314.5 Z"/></g>
<g><path style="opacity:1" fill="#fbcf7c" d="M 458.5,313.5 C 458.745,319.084 458.078,324.417 456.5,329.5C 456.527,323.949 457.194,318.616 458.5,313.5 Z"/></g>
<g><path style="opacity:1" fill="#b68881" d="M 246.5,317.5 C 246.429,320.311 245.762,322.978 244.5,325.5C 244.747,326.713 245.414,327.38 246.5,327.5C 245.791,328.404 244.791,328.737 243.5,328.5C 243.126,324.353 244.126,320.686 246.5,317.5 Z"/></g>
<g><path style="opacity:1" fill="#c8a49e" d="M 313.5,323.5 C 312.653,324.966 311.32,325.8 309.5,326C 301.655,326.822 293.989,326.656 286.5,325.5C 295.639,326.01 304.639,325.344 313.5,323.5 Z"/></g>
<g><path style="opacity:1" fill="#b07b73" d="M 350.5,318.5 C 352.175,321.507 352.841,324.84 352.5,328.5C 349.911,328.539 347.911,327.539 346.5,325.5C 348.117,326.038 349.784,326.371 351.5,326.5C 351.167,323.833 350.833,321.167 350.5,318.5 Z"/></g>
<g><path style="opacity:1" fill="#db7c83" d="M 189.5,335.5 C 181.445,335.23 173.445,335.563 165.5,336.5C 165.611,335.883 165.944,335.383 166.5,335C 174.347,332.98 182.014,333.146 189.5,335.5 Z"/></g>
<g><path style="opacity:1" fill="#e3989f" d="M 418.5,334.5 C 411.736,334.387 405.07,335.054 398.5,336.5C 398.611,335.883 398.944,335.383 399.5,335C 405.962,333.456 412.295,333.289 418.5,334.5 Z"/></g>
<g><path style="opacity:1" fill="#ca2937" d="M 418.5,334.5 C 426.15,335.123 431.984,338.79 436,345.5C 436.49,346.793 436.657,348.127 436.5,349.5C 436.577,353.962 435.91,358.295 434.5,362.5C 431.96,367.713 428.294,372.046 423.5,375.5C 422.833,368.833 422.167,362.167 421.5,355.5C 421.586,354.504 421.252,353.671 420.5,353C 411.462,349.407 402.795,350.407 394.5,356C 391,358.833 387.5,361.667 384,364.5C 382.649,360.317 379.816,357.651 375.5,356.5C 370.269,355.118 365.269,355.452 360.5,357.5C 358.102,357.259 356.102,357.926 354.5,359.5C 351.164,361.731 347.497,363.397 343.5,364.5C 341.685,365.63 339.685,366.296 337.5,366.5C 320.179,366.355 303.012,367.022 286,368.5C 274.416,368.631 262.916,367.964 251.5,366.5C 251.167,366.5 250.833,366.5 250.5,366.5C 246.784,364.474 242.784,362.807 238.5,361.5C 230.142,355.597 221.142,354.43 211.5,358C 210.076,360.101 208.742,362.267 207.5,364.5C 203.815,361.809 200.148,359.142 196.5,356.5C 189.428,351.478 181.761,349.811 173.5,351.5C 171.973,351.427 170.973,352.094 170.5,353.5C 170.167,353.5 169.833,353.5 169.5,353.5C 169.151,360.726 168.151,367.726 166.5,374.5C 155.347,366.248 152.18,355.581 157,342.5C 159.279,339.619 162.112,337.619 165.5,336.5C 173.445,335.563 181.445,335.23 189.5,335.5C 189.833,335.5 190.167,335.5 190.5,335.5C 192.515,336.924 194.848,337.59 197.5,337.5C 198.93,338.537 200.597,339.204 202.5,339.5C 204.033,341.245 206.033,342.245 208.5,342.5C 208.833,342.5 209.167,342.5 209.5,342.5C 212.084,344.472 215.084,345.472 218.5,345.5C 226.742,346.673 235.075,347.339 243.5,347.5C 275.329,348.498 307.329,348.832 339.5,348.5C 348.173,348.666 356.84,348.5 365.5,348C 366.737,347.768 367.737,347.268 368.5,346.5C 378.369,342.988 388.369,339.655 398.5,336.5C 405.07,335.054 411.736,334.387 418.5,334.5 Z"/></g>
<g><path style="opacity:1" fill="#e9b1b6" d="M 190.5,335.5 C 193.152,335.41 195.485,336.076 197.5,337.5C 194.848,337.59 192.515,336.924 190.5,335.5 Z"/></g>
<g><path style="opacity:1" fill="#fad281" d="M 521.5,335.5 C 523.074,337.102 523.741,339.102 523.5,341.5C 521.926,339.898 521.259,337.898 521.5,335.5 Z"/></g>
<g><path style="opacity:1" fill="#dc838b" d="M 202.5,339.5 C 204.967,339.755 206.967,340.755 208.5,342.5C 206.033,342.245 204.033,341.245 202.5,339.5 Z"/></g>
<g><path style="opacity:1" fill="#eab2b7" d="M 209.5,342.5 C 212.855,342.69 215.855,343.69 218.5,345.5C 215.084,345.472 212.084,344.472 209.5,342.5 Z"/></g>
<g><path style="opacity:1" fill="#fceecc" d="M 109.5,350.5 C 107.965,349.646 106.632,349.646 105.5,350.5C 102.915,349.535 102.415,348.201 104,346.5C 106.15,347.483 107.983,348.816 109.5,350.5 Z"/></g>
<g><path style="opacity:1" fill="#ecbfc2" d="M 291.5,346.5 C 295.5,346.5 299.5,346.5 303.5,346.5C 315.322,347.495 327.322,347.828 339.5,347.5C 339.5,347.833 339.5,348.167 339.5,348.5C 307.329,348.832 275.329,348.498 243.5,347.5C 259.675,347.83 275.675,347.496 291.5,346.5 Z"/></g>
<g><path style="opacity:1" fill="#ce4550" d="M 368.5,346.5 C 367.737,347.268 366.737,347.768 365.5,348C 356.84,348.5 348.173,348.666 339.5,348.5C 339.5,348.167 339.5,347.833 339.5,347.5C 349.175,347.362 358.842,347.029 368.5,346.5 Z"/></g>
<g><path style="opacity:1" fill="#fcf4ee" d="M 421.5,355.5 C 421.5,356.833 421.5,358.167 421.5,359.5C 420.609,360.11 419.609,360.443 418.5,360.5C 416.257,359.188 413.59,358.522 410.5,358.5C 407.833,358.667 405.167,358.833 402.5,359C 401.058,359.377 400.058,360.21 399.5,361.5C 396.243,362.462 393.243,363.962 390.5,366C 386.667,369.833 382.833,373.667 379,377.5C 379.087,364.265 372.587,359.099 359.5,362C 355.99,364.169 353.823,367.336 353,371.5C 350.927,386.384 352.76,400.717 358.5,414.5C 356.365,416.369 353.698,417.036 350.5,416.5C 349.46,408.818 349.46,401.151 350.5,393.5C 346.779,394.188 343.112,395.188 339.5,396.5C 337.577,395.908 335.911,394.908 334.5,393.5C 334.389,392.883 334.056,392.383 333.5,392C 334.737,391.768 335.737,391.268 336.5,390.5C 337.869,388.932 338.869,387.099 339.5,385C 341.764,384.764 343.931,384.264 346,383.5C 348.142,379.03 348.809,374.363 348,369.5C 346.736,367.393 344.903,366.393 342.5,366.5C 342.833,365.833 343.167,365.167 343.5,364.5C 347.497,363.397 351.164,361.731 354.5,359.5C 356.898,359.741 358.898,359.074 360.5,357.5C 365.269,355.452 370.269,355.118 375.5,356.5C 379.816,357.651 382.649,360.317 384,364.5C 387.5,361.667 391,358.833 394.5,356C 402.795,350.407 411.462,349.407 420.5,353C 421.252,353.671 421.586,354.504 421.5,355.5 Z"/></g>
<g><path style="opacity:1" fill="#e5a1a7" d="M 173.5,351.5 C 173.027,352.906 172.027,353.573 170.5,353.5C 170.973,352.094 171.973,351.427 173.5,351.5 Z"/></g>
<g><path style="opacity:1" fill="#df8f97" d="M 436.5,349.5 C 437.634,351.966 437.801,354.633 437,357.5C 436.901,359.653 436.067,361.319 434.5,362.5C 435.91,358.295 436.577,353.962 436.5,349.5 Z"/></g>
<g><path style="opacity:1" fill="#fdb93c" d="M 521.5,218.5 C 535.272,226.764 544.772,238.431 550,253.5C 552.99,274.568 545.823,290.901 528.5,302.5C 521.5,303.833 514.5,303.833 507.5,302.5C 503.387,300.222 500.054,297.055 497.5,293C 502.432,289.859 507.432,286.693 512.5,283.5C 514.422,281.313 516.088,278.98 517.5,276.5C 519.844,272.362 520.011,268.029 518,263.5C 517.292,262.619 516.458,261.953 515.5,261.5C 514.942,260.21 513.942,259.377 512.5,259C 501.21,257.142 493.876,261.642 490.5,272.5C 488.331,278.52 487.331,284.853 487.5,291.5C 486.293,298.639 485.626,305.972 485.5,313.5C 484.366,315.966 484.199,318.633 485,321.5C 486.992,320.672 488.492,319.339 489.5,317.5C 494.969,313.885 500.803,313.551 507,316.5C 514.7,320.693 519.533,327.027 521.5,335.5C 521.259,337.898 521.926,339.898 523.5,341.5C 524.222,341.918 524.722,342.584 525,343.5C 525.845,351.962 525.345,360.295 523.5,368.5C 522.331,371.341 521.331,374.341 520.5,377.5C 518.549,380.786 516.215,383.786 513.5,386.5C 506.763,389.607 499.763,390.274 492.5,388.5C 489.216,386.883 486.549,384.55 484.5,381.5C 484.065,378.843 483.065,376.509 481.5,374.5C 479.864,368.908 480.197,363.574 482.5,358.5C 484.587,357.415 485.92,355.749 486.5,353.5C 487.951,351.209 489.618,349.043 491.5,347C 488.983,346.743 486.65,347.41 484.5,349C 481.526,352.128 479.193,355.628 477.5,359.5C 475.926,361.102 475.259,363.102 475.5,365.5C 474.076,367.515 473.41,369.848 473.5,372.5C 472.172,377.812 470.839,383.146 469.5,388.5C 467.277,391.802 465.61,395.468 464.5,399.5C 454.093,422.718 436.093,435.051 410.5,436.5C 409.448,436.649 408.448,436.483 407.5,436C 408.252,435.329 408.586,434.496 408.5,433.5C 426.133,410.902 440.133,386.236 450.5,359.5C 453.163,349.495 455.163,339.495 456.5,329.5C 458.078,324.417 458.745,319.084 458.5,313.5C 460.275,296.368 460.941,279.035 460.5,261.5C 461.844,253.509 463.677,245.509 466,237.5C 469.302,229.516 474.468,223.183 481.5,218.5C 483.094,218.08 484.594,217.414 486,216.5C 488.078,217.943 488.911,217.276 488.5,214.5C 496.148,213.57 503.815,213.403 511.5,214C 512.05,217.008 513.55,217.841 516,216.5C 517.597,217.885 519.43,218.551 521.5,218.5 Z"/></g>
<g><path style="opacity:1" fill="#f5ac21" d="M 501.5,226.5 C 522.699,224.238 537.199,232.904 545,252.5C 547.743,269.608 542.576,283.775 529.5,295C 523.548,298.248 517.215,299.248 510.5,298C 513.423,295.955 516.257,293.788 519,291.5C 520.409,287.684 522.076,284.017 524,280.5C 524.31,273.336 523.31,266.336 521,259.5C 514.871,251.535 507.037,249.369 497.5,253C 490.052,256.365 485.886,262.198 485,270.5C 483.441,289.468 482.608,308.468 482.5,327.5C 486.604,327.116 490.271,325.616 493.5,323C 496.167,322.333 498.833,322.333 501.5,323C 517.432,333.782 522.932,348.615 518,367.5C 514.786,372.382 510.619,376.215 505.5,379C 498.509,381.167 493.509,379 490.5,372.5C 489.339,368.205 489.172,363.871 490,359.5C 493.301,354.563 495.801,349.23 497.5,343.5C 496.148,339.746 493.482,338.579 489.5,340C 485.357,343.708 480.857,346.875 476,349.5C 474.92,351.996 473.586,354.33 472,356.5C 466.75,384.178 452.583,406.012 429.5,422C 424.751,425.07 419.751,427.403 414.5,429C 424.483,419.685 432.983,409.185 440,397.5C 448.951,377.618 457.284,357.618 465,337.5C 465.585,332.489 466.251,327.489 467,322.5C 467.094,303.467 467.76,284.467 469,265.5C 472.053,250.118 480.219,238.285 493.5,230C 496.572,229.422 499.239,228.255 501.5,226.5 Z"/></g>
<g><path style="opacity:1" fill="#fdf1d8" d="M 490.5,272.5 C 490.461,277.184 490.128,281.851 489.5,286.5C 489.444,288.64 488.777,290.306 487.5,291.5C 487.331,284.853 488.331,278.52 490.5,272.5 Z"/></g>
<g><path style="opacity:1" fill="#fdedcc" d="M 515.5,261.5 C 516.458,261.953 517.292,262.619 518,263.5C 520.011,268.029 519.844,272.362 517.5,276.5C 517.984,271.241 517.317,266.241 515.5,261.5 Z"/></g>
<g><path style="opacity:1" fill="#facb6e" d="M 185.5,357.5 C 182.102,357.18 178.768,357.513 175.5,358.5C 176.127,359.417 176.461,360.417 176.5,361.5C 174.054,360.608 173.388,359.108 174.5,357C 178.358,356.19 182.024,356.357 185.5,357.5 Z"/></g>
<g><path style="opacity:1" fill="#faeee8" d="M 238.5,361.5 C 237.167,361.5 235.833,361.5 234.5,361.5C 227.717,358.365 221.383,359.032 215.5,363.5C 214.295,364.577 213.628,365.91 213.5,367.5C 212.833,369.833 212.167,372.167 211.5,374.5C 206.007,368.329 199.673,363.329 192.5,359.5C 194.199,359.66 195.866,359.494 197.5,359C 196.748,358.329 196.414,357.496 196.5,356.5C 200.148,359.142 203.815,361.809 207.5,364.5C 208.742,362.267 210.076,360.101 211.5,358C 221.142,354.43 230.142,355.597 238.5,361.5 Z"/></g>
<g><path style="opacity:1" fill="#fdba3c" d="M 185.5,357.5 C 187.833,358.167 190.167,358.833 192.5,359.5C 199.673,363.329 206.007,368.329 211.5,374.5C 211.783,375.289 212.283,375.956 213,376.5C 213.498,373.518 213.665,370.518 213.5,367.5C 213.628,365.91 214.295,364.577 215.5,363.5C 221.383,359.032 227.717,358.365 234.5,361.5C 235.925,362.922 236.925,364.589 237.5,366.5C 239.182,373.714 239.848,381.048 239.5,388.5C 238.178,395.384 236.844,402.384 235.5,409.5C 234.221,411.123 232.887,412.79 231.5,414.5C 230.893,414.376 230.56,414.043 230.5,413.5C 230.59,410.848 229.924,408.515 228.5,406.5C 227.206,399.247 224.206,392.913 219.5,387.5C 219.539,386.244 219.039,385.244 218,384.5C 217.501,389.489 217.334,394.489 217.5,399.5C 217.167,400.167 216.833,400.833 216.5,401.5C 212.315,405.211 207.315,406.544 201.5,405.5C 197.211,403.046 193.711,399.712 191,395.5C 192.27,381.455 187.437,370.121 176.5,361.5C 176.461,360.417 176.127,359.417 175.5,358.5C 178.768,357.513 182.102,357.18 185.5,357.5 Z"/></g>
<g><path style="opacity:1" fill="#fbd58b" d="M 486.5,353.5 C 485.92,355.749 484.587,357.415 482.5,358.5C 483.08,356.251 484.413,354.585 486.5,353.5 Z"/></g>
<g><path style="opacity:1" fill="#e59ca2" d="M 360.5,357.5 C 358.898,359.074 356.898,359.741 354.5,359.5C 356.102,357.926 358.102,357.259 360.5,357.5 Z"/></g>
<g><path style="opacity:1" fill="#fbd182" d="M 418.5,360.5 C 418.5,361.167 418.167,361.5 417.5,361.5C 415.777,360.2 413.61,359.533 411,359.5C 407.014,359.433 403.181,360.099 399.5,361.5C 400.058,360.21 401.058,359.377 402.5,359C 405.167,358.833 407.833,358.667 410.5,358.5C 413.59,358.522 416.257,359.188 418.5,360.5 Z"/></g>
<g><path style="opacity:1" fill="#fdba3c" d="M 417.5,361.5 C 410.65,366.868 405.484,373.534 402,381.5C 401.667,385.833 401.333,390.167 401,394.5C 399.465,400.869 395.631,405.202 389.5,407.5C 381.463,410.317 376.463,407.65 374.5,399.5C 374.263,395.278 374.596,391.111 375.5,387C 375.167,386.5 374.833,386 374.5,385.5C 373.048,386.94 372.048,388.606 371.5,390.5C 369.658,392.19 368.325,394.19 367.5,396.5C 366.025,397.262 364.691,397.595 363.5,397.5C 364.724,400.495 364.724,403.495 363.5,406.5C 362.674,410.136 362.008,413.803 361.5,417.5C 360.272,416.694 359.272,415.694 358.5,414.5C 352.76,400.717 350.927,386.384 353,371.5C 353.823,367.336 355.99,364.169 359.5,362C 372.587,359.099 379.087,364.265 379,377.5C 382.833,373.667 386.667,369.833 390.5,366C 393.243,363.962 396.243,362.462 399.5,361.5C 403.181,360.099 407.014,359.433 411,359.5C 413.61,359.533 415.777,360.2 417.5,361.5 Z"/></g>
<g><path style="opacity:1" fill="#fdf5e6" d="M 234.5,361.5 C 235.833,361.5 237.167,361.5 238.5,361.5C 242.784,362.807 246.784,364.474 250.5,366.5C 247.901,366.549 245.734,367.549 244,369.5C 243.184,376.001 244.518,382.001 248,387.5C 250.518,388.791 252.851,388.458 255,386.5C 258.309,389.154 262.142,390.154 266.5,389.5C 273.289,389.201 279.956,389.868 286.5,391.5C 295.434,392.938 304.434,392.605 313.5,390.5C 317.79,390.198 321.79,390.864 325.5,392.5C 302.824,393.609 280.158,393.776 257.5,393C 256.516,395.125 254.85,396.292 252.5,396.5C 249.041,394.905 245.374,393.905 241.5,393.5C 242.162,397.157 242.829,400.824 243.5,404.5C 242.884,408.145 242.55,411.812 242.5,415.5C 241.351,415.209 240.684,414.376 240.5,413C 241.99,406.602 241.656,400.435 239.5,394.5C 239.5,392.5 239.5,390.5 239.5,388.5C 240.651,383.35 240.817,378.016 240,372.5C 239.963,370.026 239.13,368.026 237.5,366.5C 236.925,364.589 235.925,362.922 234.5,361.5 Z"/></g>
<g><path style="opacity:1" fill="#fce5b7" d="M 477.5,359.5 C 477.741,361.898 477.074,363.898 475.5,365.5C 475.259,363.102 475.926,361.102 477.5,359.5 Z"/></g>
<g><path style="opacity:1" fill="#efb079" d="M 343.5,364.5 C 343.167,365.167 342.833,365.833 342.5,366.5C 340.958,367.301 339.292,367.634 337.5,367.5C 337.5,367.167 337.5,366.833 337.5,366.5C 339.685,366.296 341.685,365.63 343.5,364.5 Z"/></g>
<g><path style="opacity:1" fill="#fdb93c" d="M 250.5,366.5 C 250.833,366.5 251.167,366.5 251.5,366.5C 255.481,370.675 260.314,371.675 266,369.5C 271.533,371.717 277.2,372.051 283,370.5C 286.56,370.853 290.06,371.52 293.5,372.5C 296.71,371.646 299.876,370.646 303,369.5C 305.46,370.313 307.96,370.98 310.5,371.5C 312.854,371.489 314.854,370.656 316.5,369C 320.677,368.542 324.843,368.708 329,369.5C 332.116,369.511 334.949,368.845 337.5,367.5C 339.292,367.634 340.958,367.301 342.5,366.5C 344.903,366.393 346.736,367.393 348,369.5C 348.809,374.363 348.142,379.03 346,383.5C 343.931,384.264 341.764,384.764 339.5,385C 338.869,387.099 337.869,388.932 336.5,390.5C 328.65,390.045 320.984,390.045 313.5,390.5C 304.434,392.605 295.434,392.938 286.5,391.5C 284.723,390.4 282.723,389.566 280.5,389C 275.648,388.185 270.981,388.352 266.5,389.5C 262.142,390.154 258.309,389.154 255,386.5C 252.851,388.458 250.518,388.791 248,387.5C 244.518,382.001 243.184,376.001 244,369.5C 245.734,367.549 247.901,366.549 250.5,366.5 Z"/></g>
<g><path style="opacity:1" fill="#faebe2" d="M 251.5,366.5 C 262.916,367.964 274.416,368.631 286,368.5C 303.012,367.022 320.179,366.355 337.5,366.5C 337.5,366.833 337.5,367.167 337.5,367.5C 334.949,368.845 332.116,369.511 329,369.5C 324.843,368.708 320.677,368.542 316.5,369C 314.854,370.656 312.854,371.489 310.5,371.5C 307.96,370.98 305.46,370.313 303,369.5C 299.876,370.646 296.71,371.646 293.5,372.5C 290.06,371.52 286.56,370.853 283,370.5C 277.2,372.051 271.533,371.717 266,369.5C 260.314,371.675 255.481,370.675 251.5,366.5 Z"/></g>
<g><path style="opacity:1" fill="#fce3b2" d="M 475.5,365.5 C 475.59,368.152 474.924,370.485 473.5,372.5C 473.41,369.848 474.076,367.515 475.5,365.5 Z"/></g>
<g><path style="opacity:1" fill="#d56671" d="M 169.5,353.5 C 169.831,361.196 169.497,368.862 168.5,376.5C 167.478,376.145 166.811,375.478 166.5,374.5C 168.151,367.726 169.151,360.726 169.5,353.5 Z"/></g>
<g><path style="opacity:1" fill="#e5a3ab" d="M 421.5,355.5 C 422.167,362.167 422.833,368.833 423.5,375.5C 423.44,376.043 423.107,376.376 422.5,376.5C 421.505,370.872 421.171,365.206 421.5,359.5C 421.5,358.167 421.5,356.833 421.5,355.5 Z"/></g>
<g><path style="opacity:1" fill="#fae1ac" d="M 213.5,367.5 C 213.665,370.518 213.498,373.518 213,376.5C 212.283,375.956 211.783,375.289 211.5,374.5C 212.167,372.167 212.833,369.833 213.5,367.5 Z"/></g>
<g><path style="opacity:1" fill="#fbe4b2" d="M 523.5,368.5 C 524.075,372.155 523.075,375.155 520.5,377.5C 521.331,374.341 522.331,371.341 523.5,368.5 Z"/></g>
<g><path style="opacity:1" fill="#ca2434" d="M 183.5,390.5 C 183.166,393.491 184.166,395.824 186.5,397.5C 194.792,412.942 206.125,415.609 220.5,405.5C 221.167,409.167 221.833,412.833 222.5,416.5C 222.5,417.167 222.833,417.5 223.5,417.5C 223.833,418.167 224.167,418.833 224.5,419.5C 225.793,420.158 227.293,420.492 229,420.5C 241.266,419.038 253.433,418.038 265.5,417.5C 267.806,417.007 270.139,416.674 272.5,416.5C 288.498,417.738 304.498,417.738 320.5,416.5C 321.167,416.5 321.833,416.5 322.5,416.5C 336.551,417.054 350.717,418.054 365,419.5C 366.707,419.492 368.207,419.158 369.5,418.5C 370.468,416.393 370.802,414.059 370.5,411.5C 371.167,409.167 371.833,406.833 372.5,404.5C 378.372,411.486 385.706,413.319 394.5,410C 398.314,408.778 401.314,406.611 403.5,403.5C 404.906,403.027 405.573,402.027 405.5,400.5C 405.5,400.167 405.5,399.833 405.5,399.5C 406.906,399.027 407.573,398.027 407.5,396.5C 408.849,392.411 410.182,388.411 411.5,384.5C 412.806,381.662 413.973,378.662 415,375.5C 415.383,376.056 415.883,376.389 416.5,376.5C 417.167,380.5 417.833,384.5 418.5,388.5C 418.674,395.535 418.341,402.535 417.5,409.5C 416.345,412.457 415.345,415.457 414.5,418.5C 413.094,418.973 412.427,419.973 412.5,421.5C 409.152,425.847 405.152,429.514 400.5,432.5C 392.495,435.164 384.495,437.497 376.5,439.5C 371.595,440.572 366.595,441.238 361.5,441.5C 324.443,441.945 287.443,442.278 250.5,442.5C 240.482,441.928 230.482,441.261 220.5,440.5C 219.319,438.933 217.653,438.099 215.5,438C 212.854,437.503 210.187,437.336 207.5,437.5C 202.78,436.314 198.113,434.814 193.5,433C 191.416,432.303 189.749,431.136 188.5,429.5C 186.833,427.167 184.833,425.167 182.5,423.5C 180.914,421.33 179.58,418.996 178.5,416.5C 177.871,413.603 176.871,410.936 175.5,408.5C 175.5,399.833 175.5,391.167 175.5,382.5C 176.517,379.425 177.683,376.425 179,373.5C 180.575,379.235 182.075,384.901 183.5,390.5 Z"/></g>
<g><path style="opacity:1" fill="#e39ea4" d="M 416.5,376.5 C 415.883,376.389 415.383,376.056 415,375.5C 413.973,378.662 412.806,381.662 411.5,384.5C 411.872,380.345 412.872,376.345 414.5,372.5C 415.705,373.577 416.372,374.91 416.5,376.5 Z"/></g>
<g><path style="opacity:1" fill="#face78" d="M 237.5,366.5 C 239.13,368.026 239.963,370.026 240,372.5C 240.817,378.016 240.651,383.35 239.5,388.5C 239.848,381.048 239.182,373.714 237.5,366.5 Z"/></g>
<g><path style="opacity:1" fill="#fce1ad" d="M 481.5,374.5 C 483.065,376.509 484.065,378.843 484.5,381.5C 482.552,379.68 481.552,377.346 481.5,374.5 Z"/></g>
<g><path style="opacity:1" fill="#fdeac4" d="M 119.5,369.5 C 121.13,373.911 122.13,378.578 122.5,383.5C 120.044,379.274 119.044,374.607 119.5,369.5 Z"/></g>
<g><path style="opacity:1" fill="#fbd180" d="M 266.5,389.5 C 270.981,388.352 275.648,388.185 280.5,389C 282.723,389.566 284.723,390.4 286.5,391.5C 279.956,389.868 273.289,389.201 266.5,389.5 Z"/></g>
<g><path style="opacity:1" fill="#fce4b4" d="M 513.5,386.5 C 512.025,388.41 510.025,389.576 507.5,390C 503.167,390.667 498.833,390.667 494.5,390C 493.584,389.722 492.918,389.222 492.5,388.5C 499.763,390.274 506.763,389.607 513.5,386.5 Z"/></g>
<g><path style="opacity:1" fill="#fccd73" d="M 313.5,390.5 C 320.984,390.045 328.65,390.045 336.5,390.5C 335.737,391.268 334.737,391.768 333.5,392C 334.056,392.383 334.389,392.883 334.5,393.5C 331.518,393.037 328.518,392.704 325.5,392.5C 321.79,390.864 317.79,390.198 313.5,390.5 Z"/></g>
<g><path style="opacity:1" fill="#fcebc4" d="M 219.5,387.5 C 218.833,391.5 218.167,395.5 217.5,399.5C 217.334,394.489 217.501,389.489 218,384.5C 219.039,385.244 219.539,386.244 219.5,387.5 Z"/></g>
<g><path style="opacity:1" fill="#d45f68" d="M 183.5,390.5 C 185.065,392.509 186.065,394.843 186.5,397.5C 184.166,395.824 183.166,393.491 183.5,390.5 Z"/></g>
<g><path style="opacity:1" fill="#fdba3d" d="M 325.5,392.5 C 328.518,392.704 331.518,393.037 334.5,393.5C 335.911,394.908 337.577,395.908 339.5,396.5C 343.112,395.188 346.779,394.188 350.5,393.5C 349.46,401.151 349.46,408.818 350.5,416.5C 347.833,416.5 345.167,416.5 342.5,416.5C 340.389,415.264 338.389,413.764 336.5,412C 333.961,411.204 331.628,411.371 329.5,412.5C 326.098,412.658 322.764,412.324 319.5,411.5C 318.012,410.061 316.178,409.395 314,409.5C 307.839,410.735 301.673,410.735 295.5,409.5C 285.748,409.916 276.081,410.916 266.5,412.5C 260.303,410.212 254.97,411.379 250.5,416C 247.633,416.801 244.966,416.634 242.5,415.5C 242.55,411.812 242.884,408.145 243.5,404.5C 242.829,400.824 242.162,397.157 241.5,393.5C 245.374,393.905 249.041,394.905 252.5,396.5C 254.85,396.292 256.516,395.125 257.5,393C 280.158,393.776 302.824,393.609 325.5,392.5 Z"/></g>
<g><path style="opacity:1" fill="#e3979d" d="M 175.5,382.5 C 175.5,391.167 175.5,399.833 175.5,408.5C 172.893,399.829 172.893,391.162 175.5,382.5 Z"/></g>
<g><path style="opacity:1" fill="#fce6b8" d="M 374.5,399.5 C 374.11,396.203 373.11,393.203 371.5,390.5C 372.048,388.606 373.048,386.94 374.5,385.5C 374.833,386 375.167,386.5 375.5,387C 374.596,391.111 374.263,395.278 374.5,399.5 Z"/></g>
<g><path style="opacity:1" fill="#fceac3" d="M 469.5,388.5 C 468.828,391.71 467.828,394.876 466.5,398C 466.164,399.03 465.497,399.53 464.5,399.5C 465.61,395.468 467.277,391.802 469.5,388.5 Z"/></g>
<g><path style="opacity:1" fill="#fce3b1" d="M 126.5,393.5 C 128.4,396.518 129.733,399.851 130.5,403.5C 128.103,400.691 126.77,397.358 126.5,393.5 Z"/></g>
<g><path style="opacity:1" fill="#fdca6c" d="M 367.5,396.5 C 367.657,397.873 367.49,399.207 367,400.5C 366.124,402.758 364.957,404.758 363.5,406.5C 364.724,403.495 364.724,400.495 363.5,397.5C 364.691,397.595 366.025,397.262 367.5,396.5 Z"/></g>
<g><path style="opacity:1" fill="#e4a1a7" d="M 407.5,396.5 C 407.573,398.027 406.906,399.027 405.5,399.5C 405.427,397.973 406.094,396.973 407.5,396.5 Z"/></g>
<g><path style="opacity:1" fill="#fce6b8" d="M 239.5,388.5 C 239.5,390.5 239.5,392.5 239.5,394.5C 239.081,399.846 237.748,404.846 235.5,409.5C 236.844,402.384 238.178,395.384 239.5,388.5 Z"/></g>
<g><path style="opacity:1" fill="#db7980" d="M 405.5,400.5 C 405.573,402.027 404.906,403.027 403.5,403.5C 403.427,401.973 404.094,400.973 405.5,400.5 Z"/></g>
<g><path style="opacity:1" fill="#fcd995" d="M 216.5,401.5 C 216.141,403.371 215.141,404.871 213.5,406C 209.311,406.812 205.311,406.645 201.5,405.5C 207.315,406.544 212.315,405.211 216.5,401.5 Z"/></g>
<g><path style="opacity:1" fill="#fcbb43" d="M 151.5,380.5 C 159.997,396.664 169.331,412.331 179.5,427.5C 167.141,417.627 157.974,405.294 152,390.5C 152.813,387.161 152.646,383.828 151.5,380.5 Z"/></g>
<g><path style="opacity:1" fill="#dea6ac" d="M 372.5,404.5 C 371.833,406.833 371.167,409.167 370.5,411.5C 370.187,408.753 370.52,406.086 371.5,403.5C 372.107,403.624 372.44,403.957 372.5,404.5 Z"/></g>
<g><path style="opacity:1" fill="#e2979d" d="M 418.5,388.5 C 419.165,391.314 419.498,394.314 419.5,397.5C 419.722,401.797 419.055,405.797 417.5,409.5C 418.341,402.535 418.674,395.535 418.5,388.5 Z"/></g>
<g><path style="opacity:1" fill="#ecc5c9" d="M 220.5,404.5 C 221.209,403.596 222.209,403.263 223.5,403.5C 223.5,408.167 223.5,412.833 223.5,417.5C 222.833,417.5 222.5,417.167 222.5,416.5C 223.089,412.029 222.423,408.029 220.5,404.5 Z"/></g>
<g><path style="opacity:1" fill="#fdf7f0" d="M 239.5,394.5 C 241.656,400.435 241.99,406.602 240.5,413C 240.684,414.376 241.351,415.209 242.5,415.5C 244.966,416.634 247.633,416.801 250.5,416C 254.97,411.379 260.303,410.212 266.5,412.5C 276.081,410.916 285.748,409.916 295.5,409.5C 301.673,410.735 307.839,410.735 314,409.5C 316.178,409.395 318.012,410.061 319.5,411.5C 319.611,412.117 319.944,412.617 320.5,413C 323.696,413.805 326.696,413.638 329.5,412.5C 331.628,411.371 333.961,411.204 336.5,412C 338.389,413.764 340.389,415.264 342.5,416.5C 335.833,416.5 329.167,416.5 322.5,416.5C 321.833,416.5 321.167,416.5 320.5,416.5C 304.5,415.167 288.5,415.167 272.5,416.5C 270.139,416.674 267.806,417.007 265.5,417.5C 255.5,417.5 245.5,417.5 235.5,417.5C 233.5,417.167 231.5,416.833 229.5,416.5C 229.5,415.5 229.5,414.5 229.5,413.5C 229.833,413.5 230.167,413.5 230.5,413.5C 230.56,414.043 230.893,414.376 231.5,414.5C 232.887,412.79 234.221,411.123 235.5,409.5C 237.748,404.846 239.081,399.846 239.5,394.5 Z"/></g>
<g><path style="opacity:1" fill="#e7a7ad" d="M 175.5,408.5 C 176.871,410.936 177.871,413.603 178.5,416.5C 176.345,414.383 175.345,411.716 175.5,408.5 Z"/></g>
<g><path style="opacity:1" fill="#d66772" d="M 220.5,405.5 C 220.5,405.167 220.5,404.833 220.5,404.5C 222.423,408.029 223.089,412.029 222.5,416.5C 221.833,412.833 221.167,409.167 220.5,405.5 Z"/></g>
<g><path style="opacity:1" fill="#fbdb9d" d="M 228.5,406.5 C 229.924,408.515 230.59,410.848 230.5,413.5C 230.167,413.5 229.833,413.5 229.5,413.5C 229.007,411.194 228.674,408.861 228.5,406.5 Z"/></g>
<g><path style="opacity:1" fill="#fbdda0" d="M 319.5,411.5 C 322.764,412.324 326.098,412.658 329.5,412.5C 326.696,413.638 323.696,413.805 320.5,413C 319.944,412.617 319.611,412.117 319.5,411.5 Z"/></g>
<g><path style="opacity:1" fill="#f4d1d5" d="M 272.5,416.5 C 288.5,415.167 304.5,415.167 320.5,416.5C 304.498,417.738 288.498,417.738 272.5,416.5 Z"/></g>
<g><path style="opacity:1" fill="#f4d6d3" d="M 358.5,414.5 C 359.272,415.694 360.272,416.694 361.5,417.5C 363.948,418.473 366.615,418.806 369.5,418.5C 368.207,419.158 366.707,419.492 365,419.5C 350.717,418.054 336.551,417.054 322.5,416.5C 329.167,416.5 335.833,416.5 342.5,416.5C 345.167,416.5 347.833,416.5 350.5,416.5C 353.698,417.036 356.365,416.369 358.5,414.5 Z"/></g>
<g><path style="opacity:1" fill="#cb444f" d="M 235.5,417.5 C 245.5,417.5 255.5,417.5 265.5,417.5C 253.433,418.038 241.266,419.038 229,420.5C 227.293,420.492 225.793,420.158 224.5,419.5C 228.387,419.354 232.054,418.687 235.5,417.5 Z"/></g>
<g><path style="opacity:1" fill="#e7a2a8" d="M 414.5,418.5 C 414.573,420.027 413.906,421.027 412.5,421.5C 412.427,419.973 413.094,418.973 414.5,418.5 Z"/></g>
<g><path style="opacity:1" fill="#e49da4" d="M 182.5,423.5 C 184.833,425.167 186.833,427.167 188.5,429.5C 185.5,428.5 183.5,426.5 182.5,423.5 Z"/></g>
<g><path style="opacity:1" fill="#e2959b" d="M 400.5,432.5 C 399.426,434.284 397.76,435.451 395.5,436C 389.236,437.599 382.903,438.766 376.5,439.5C 384.495,437.497 392.495,435.164 400.5,432.5 Z"/></g>
<g><path style="opacity:1" fill="#f9e0a8" d="M 408.5,433.5 C 408.586,434.496 408.252,435.329 407.5,436C 408.448,436.483 409.448,436.649 410.5,436.5C 409.432,437.434 408.099,437.768 406.5,437.5C 406.229,435.62 406.896,434.287 408.5,433.5 Z"/></g>
<g><path style="opacity:1" fill="#d45b64" d="M 207.5,437.5 C 210.187,437.336 212.854,437.503 215.5,438C 217.653,438.099 219.319,438.933 220.5,440.5C 215.908,440.118 211.575,439.118 207.5,437.5 Z"/></g>
<g><path style="opacity:1" fill="#e1b1b5" d="M 361.5,441.5 C 359.031,442.317 356.365,442.817 353.5,443C 335.167,443.333 316.833,443.667 298.5,444C 300.491,444.374 302.158,445.207 303.5,446.5C 301.064,446.683 298.897,446.016 297,444.5C 295.67,445.582 294.17,446.249 292.5,446.5C 293.058,445.21 294.058,444.377 295.5,444C 280.328,443.831 265.328,443.331 250.5,442.5C 287.443,442.278 324.443,441.945 361.5,441.5 Z"/></g>
<g><path style="opacity:1" fill="#a39e9b" d="M 289.5,446.5 C 274.303,446.253 258.97,446.253 243.5,446.5C 243.611,445.883 243.944,445.383 244.5,445C 248.167,444.833 251.833,444.667 255.5,444.5C 266.788,445.825 278.121,446.492 289.5,446.5 Z"/></g>
<g><path style="opacity:1" fill="#362b25" d="M 303.5,446.5 C 305.81,447.164 308.31,447.497 311,447.5C 323.762,445.62 336.596,445.12 349.5,446C 350.833,447.333 350.833,448.667 349.5,450C 334.619,458.194 318.619,462.028 301.5,461.5C 292.509,460.959 283.509,460.626 274.5,460.5C 266.516,459.769 258.849,457.769 251.5,454.5C 250.713,452.896 249.38,452.229 247.5,452.5C 245.909,451.781 244.409,450.781 243,449.5C 242.26,448.251 242.427,447.251 243.5,446.5C 258.97,446.253 274.303,446.253 289.5,446.5C 290.5,446.5 291.5,446.5 292.5,446.5C 294.17,446.249 295.67,445.582 297,444.5C 298.897,446.016 301.064,446.683 303.5,446.5 Z"/></g>
<g><path style="opacity:1" fill="#97928e" d="M 247.5,452.5 C 249.38,452.229 250.713,452.896 251.5,454.5C 249.847,454.34 248.514,453.674 247.5,452.5 Z"/></g>
<g><path style="opacity:1" fill="#8b8582" d="M 274.5,460.5 C 283.509,460.626 292.509,460.959 301.5,461.5C 292.46,462.773 283.46,462.439 274.5,460.5 Z"/></g>
</svg>
